<svg width="34" height="34" viewBox="0 0 34 34" fill="none" xmlns="http://www.w3.org/2000/svg">
<path d="M26.8186 7.99211C25.0127 7.1635 23.0762 6.55302 21.0515 6.20337C21.0146 6.19662 20.9778 6.21349 20.9588 6.24722C20.7097 6.69018 20.4338 7.26806 20.2407 7.72227C18.0629 7.39624 15.8963 7.39624 13.7632 7.72227C13.57 7.25796 13.2841 6.69018 13.0339 6.24722C13.0149 6.21461 12.9781 6.19775 12.9412 6.20337C10.9176 6.5519 8.98107 7.16239 7.17408 7.99211C7.15843 7.99886 7.14503 8.01011 7.13613 8.02472C3.46295 13.5124 2.45671 18.8651 2.95034 24.1515C2.95257 24.1774 2.96709 24.2021 2.98719 24.2179C5.41065 25.9976 7.75818 27.078 10.0621 27.7942C10.099 27.8055 10.1381 27.792 10.1615 27.7616C10.7065 27.0174 11.1923 26.2326 11.6089 25.4073C11.6335 25.359 11.61 25.3017 11.5598 25.2826C10.7892 24.9902 10.0554 24.6338 9.3496 24.2291C9.29377 24.1965 9.2893 24.1167 9.34066 24.0784C9.48919 23.9671 9.63776 23.8513 9.77959 23.7344C9.80525 23.713 9.841 23.7085 9.87117 23.722C14.5081 25.8391 19.5281 25.8391 24.1103 23.722C24.1405 23.7074 24.1763 23.7119 24.2031 23.7333C24.3449 23.8502 24.4934 23.9671 24.6431 24.0784C24.6945 24.1167 24.6911 24.1965 24.6353 24.2291C23.9295 24.6417 23.1957 24.9902 22.424 25.2814C22.3738 25.3006 22.3514 25.359 22.376 25.4073C22.8015 26.2314 23.2873 27.0162 23.8222 27.7605C23.8446 27.792 23.8848 27.8055 23.9216 27.7942C26.2367 27.078 28.5843 25.9976 31.0077 24.2179C31.0289 24.2021 31.0424 24.1785 31.0446 24.1527C31.6354 18.041 30.0551 12.7321 26.8554 8.02583C26.8476 8.01011 26.8343 7.99886 26.8186 7.99211ZM12.3013 20.9327C10.9053 20.9327 9.75501 19.651 9.75501 18.077C9.75501 16.503 10.883 15.2213 12.3013 15.2213C13.7308 15.2213 14.87 16.5142 14.8476 18.077C14.8476 19.651 13.7196 20.9327 12.3013 20.9327ZM21.7159 20.9327C20.3199 20.9327 19.1697 19.651 19.1697 18.077C19.1697 16.503 20.2976 15.2213 21.7159 15.2213C23.1455 15.2213 24.2846 16.5142 24.2623 18.077C24.2623 19.651 23.1455 20.9327 21.7159 20.9327Z" fill="#D9D9D9"/>
</svg>
