<svg width="34" height="34" viewBox="0 0 34 34" fill="none" xmlns="http://www.w3.org/2000/svg">
<path fill-rule="evenodd" clip-rule="evenodd" d="M31.1666 17C31.1666 24.8241 24.824 31.1667 16.9999 31.1667C9.17588 31.1667 2.83325 24.8241 2.83325 17C2.83325 9.17601 9.17588 2.83337 16.9999 2.83337C24.824 2.83337 31.1666 9.17601 31.1666 17ZM17.5076 13.2918C16.1296 13.865 13.3757 15.0512 9.24588 16.8505C8.57525 17.1172 8.22395 17.3781 8.19197 17.6332C8.13792 18.0643 8.67782 18.2341 9.41302 18.4653C9.51303 18.4967 9.61664 18.5293 9.72287 18.5638C10.4462 18.799 11.4192 19.074 11.925 19.085C12.3839 19.0949 12.896 18.9057 13.4613 18.5175C17.32 15.9128 19.3119 14.5962 19.4369 14.5678C19.5251 14.5478 19.6474 14.5226 19.7302 14.5963C19.8131 14.6699 19.8049 14.8093 19.7962 14.8467C19.7427 15.0747 17.6234 17.045 16.5266 18.0647C16.1847 18.3825 15.9422 18.608 15.8926 18.6595C15.7816 18.7748 15.6684 18.884 15.5596 18.9888C14.8876 19.6366 14.3837 20.1224 15.5875 20.9157C16.166 21.2969 16.6289 21.6122 17.0907 21.9267C17.5951 22.2702 18.0981 22.6127 18.749 23.0394C18.9148 23.1481 19.0732 23.261 19.2275 23.371C19.8144 23.7894 20.3417 24.1654 20.9932 24.1054C21.3718 24.0706 21.7628 23.7146 21.9614 22.653C22.4307 20.1441 23.3532 14.708 23.5664 12.4679C23.5851 12.2716 23.5616 12.0204 23.5427 11.9102C23.5238 11.7999 23.4844 11.6428 23.3411 11.5265C23.1714 11.3888 22.9093 11.3598 22.7921 11.3618C22.2593 11.3712 21.4418 11.6555 17.5076 13.2918Z" fill="#D9D9D9"/>
</svg>
